<svg width="100" height="100" xmlns="http://www.w3.org/2000/svg" class="iconLeft">
 <!---->
 <!---->
 <!---->
 <defs>
  <linearGradient y2="0%" x2="100%" y1="0%" x1="0%" id="bf1d417e-b944-47ba-9732-60658f79a2a2" gradientTransform="rotate(25)">
   <stop stop-color=" rgb(18, 38, 99)" offset="0%"/>
   <stop stop-color=" rgb(93, 215, 173)" offset="100%"/>
  </linearGradient>
 </defs>
 <!---->
 <g>
  <title>background</title>
  <rect fill="none" id="canvas_background" height="102" width="102" y="-1" x="-1"/>
 </g>
 <g>
  <title>Layer 1</title>
  <g transform="matrix(1,0,0,1,0,46.078392028808594)" fill="#12292A" id="3e2c6737-54bb-4c5e-a020-22687b1499da">
   <path id="svg_1"/>
  </g>
  <g fill="url(#bf1d417e-b944-47ba-9732-60658f79a2a2)" transform="matrix(1.011911153793335,0,0,1.011911153793335,1.0322647094726562,-2.107738494873047)" id="b402ab4b-8ea9-41f2-8ebb-31e129d4799d">
   <path id="svg_2" d="m82.82,93.536003c-11.751999,0 -31.848,-12.200005 -50.003998,-30.356003c-11.176003,-11.175999 -20.252002,-23.164001 -25.540002,-33.752001c-5.612,-11.24 -6.32,-19.799999 -1.984,-24.131999c1.88,-1.884 4.528,-2.832 7.88,-2.832c11.752,0 31.848001,12.2 50.003999,30.356c11.175999,11.175999 20.252003,23.164001 25.540005,33.751999c5.612,11.239998 6.32,19.800003 1.983994,24.132004c-1.879997,1.879997 -4.528,2.832001 -7.879997,2.832001zm-69.648,-87.072003c-2.252,0 -3.948,0.56 -5.052,1.659999c-2.932,2.924001 -1.916,10.228 2.736,19.516c5.104,10.216 13.915999,21.832001 24.788001,32.712002c17.183998,17.184002 36.583996,29.184002 47.175999,29.184002c2.251999,0 3.947998,-0.560005 5.052002,-1.660004c2.931999,-2.928001 1.916,-10.227997 -2.736,-19.515999c-5.104004,-10.216 -13.916,-21.832001 -24.788002,-32.712002c-17.183998,-17.183998 -36.587999,-29.183999 -47.176,-29.183999z"/>
   <path id="svg_3" d="m13.176,93.536003c-0.004,0 -0.004,0 0,0c-3.356,0 -6.004,-0.948006 -7.884,-2.832001c-4.336,-4.332001 -3.628,-12.903999 1.984,-24.132004c5.288,-10.584 14.363999,-22.576 25.540002,-33.751999c18.155998,-18.156 38.251999,-30.356 50.003998,-30.356c3.351997,0 6,0.948 7.879997,2.832c4.336006,4.332 3.628006,12.904001 -1.983994,24.131999c-5.288002,10.584002 -14.364006,22.576002 -25.540005,33.752001c-18.155998,18.155998 -38.251999,30.356003 -49.999999,30.356003zm69.644,-87.072003c-10.587997,0 -29.992001,12 -47.175999,29.183999c-10.884001,10.880001 -19.684001,22.496002 -24.788001,32.712002c-4.64,9.288002 -5.668,16.584 -2.736,19.515999c1.1,1.099998 2.796,1.660004 5.052,1.660004c10.588,0 29.992002,-12 47.176,-29.184002c10.884003,-10.880001 19.683998,-22.496002 24.788002,-32.712002c4.639999,-9.288 5.667999,-16.584 2.736,-19.516c-1.104004,-1.099999 -2.796005,-1.659999 -5.052002,-1.659999z"/>
   <path id="svg_4" d="m47.995998,62c-12.556,0 -24.383999,-1.264 -33.303998,-3.580002c-10.012001,-2.587997 -15.088,-6.095997 -15.088,-10.419998s5.084,-7.832001 15.084,-10.419998c8.924,-2.304001 20.751999,-3.580002 33.307999,-3.580002c24.056004,0 48.400005,4.807999 48.400005,14s-24.344002,14 -48.400005,14zm0,-24c-12.227997,0 -23.699999,1.228001 -32.303998,3.452c-9.544001,2.467999 -12.088,5.276001 -12.088,6.548s2.552,4.080002 12.084,6.548c8.604,2.228001 20.080002,3.452 32.304001,3.452c27.100002,0 44.399998,-5.919998 44.399998,-10s-17.295998,-10 -44.396,-10z"/>
   <path id="svg_5" d="m47.995998,54.868c-3.779999,0 -6.868,-3.084 -6.868,-6.868s3.084003,-6.868 6.868,-6.868s6.868,3.084 6.868,6.868s-3.087997,6.868 -6.868,6.868zm0,-9.736c-1.584,0 -2.868,1.279999 -2.868,2.868s1.280003,2.868 2.868,2.868s2.868,-1.279999 2.868,-2.868s-1.279999,-2.868 -2.868,-2.868z"/>
  </g>
 </g>
</svg>